# xmcd
#
# Track frame offsets:
#	150
#	10994
#	23926
#	36685
#	49003
#	62388
#	73832
#	86909
#	100332
#	115680
#	128047
#	139668
#
# Disc length: 2035 seconds
#
# Revision: 0
# Processed by: cddbd v1.5.2PL0 Copyright (c) Steve Scherf et al.
# Submitted via: EasyCDDAExtractor 12.1.0.1
#
DISCID=a707f10c
DTITLE=eysuhl™ Eydie Gorme and Trio Los Panchos - Eydie Gorme and Trio Los Panchos
DTITLE=[1972 Cplumbia 1316] Amor (Vinyl)
DYEAR=1972
DGENRE=Latin
TTITLE0=Piel Canela
TTITLE1=Y...
TTITLE2=Nosotros
TTITLE3=Cuando Vuelva A Tu Lado
TTITLE4=Di Que No Es Verdad
TTITLE5=Historia De Un Amor
TTITLE6=Sabor A Mi
TTITLE7=Amor
TTITLE8=Noche De Ronda
TTITLE9=Caminito
TTITLE10=Media Vuelta
TTITLE11=La Ultima Noche
EXTD=
EXTT0=
EXTT1=
EXTT2=
EXTT3=
EXTT4=
EXTT5=
EXTT6=
EXTT7=
EXTT8=
EXTT9=
EXTT10=
EXTT11=
PLAYORDER=
